<svg width="36" height="43" viewBox="0 0 36 43" fill="none" xmlns="http://www.w3.org/2000/svg">
<path d="M25.1609 26.2285L25.519 25.7875C26.4857 24.6955 26.9333 24.8845 27.8463 25.9555L32.7696 31.6675C34.2376 33.3685 34.9358 33.6835 33.6289 35.3005L33.2708 35.7415L25.1609 26.2285ZM24.3553 27.3415L32.2325 36.5815C30.5496 38.0515 26.0203 41.4955 22.6725 39.7945C19.6827 38.2615 19.5395 37.5055 17.3017 35.5945C13.5242 31.7095 9.4782 26.8165 6.43475 22.9945C4.80561 20.3485 4.0537 20.2435 2.85422 16.6945C1.58313 12.9145 4.44755 7.45449 5.64703 5.39649L13.5242 14.6365L10.624 17.1145C9.80045 17.8285 10.7314 19.6345 11.8055 20.8945C13.6853 23.0785 17.4986 27.5725 19.0919 29.2945C20.1482 30.5335 21.6878 31.6465 22.3144 30.6805L24.3553 27.3415ZM6.36314 4.19949L6.73909 3.75849C8.06389 2.33049 8.35033 3.14949 9.78254 4.85049L14.6521 10.6045C15.5293 11.6755 15.7262 12.1795 14.849 13.2715L14.473 13.6915L6.36314 4.19949Z" fill="white"/>
</svg>
