<svg width="30" height="39" viewBox="0 0 40 39" fill="none" xmlns="http://www.w3.org/2000/svg">
<path d="M38 28.4283V11.1292C38 9.5338 36.66 8.24597 35 8.24597H6.97998C5.31998 8.24597 3.97998 9.5338 3.97998 11.1292V28.4283C3.97998 30.0237 5.31998 31.3115 6.97998 31.3115H35C36.66 31.3115 38 30.0237 38 28.4283ZM35.38 10.9177C36.04 11.552 35.68 12.2055 35.32 12.5323L27.2 19.6826L35 27.4864C35.24 27.7555 35.4 28.1784 35.12 28.4667C34.86 28.7743 34.26 28.755 34 28.5628L25.26 21.3933L20.98 25.1415L16.72 21.3933L7.97998 28.5628C7.71998 28.755 7.11998 28.7743 6.85998 28.4667C6.57998 28.1784 6.73998 27.7555 6.97998 27.4864L14.78 19.6826L6.65998 12.5323C6.29998 12.2055 5.93998 11.552 6.59998 10.9177C7.25998 10.2834 7.93998 10.591 8.49998 11.0523L20.98 20.7398L33.48 11.0523C34.04 10.591 34.72 10.2834 35.38 10.9177Z" fill="white"/>
</svg>
