<svg width="25" height="25" viewBox="0 0 34 35" fill="none" xmlns="http://www.w3.org/2000/svg">
<path d="M17 0C7.4375 0 0 7.90323 0 18.0645C0 29.9194 10.0938 35 11.6875 35C12.75 35 12.75 34.4355 12.75 33.871V31.0484C9.03125 32.1774 7.4375 29.9194 6.90625 28.2258C6.90625 28.2258 6.90625 27.6613 5.84375 26.5323C5.3125 25.9677 3.1875 24.8387 5.3125 24.8387C6.90625 24.8387 7.96875 27.0968 7.96875 27.0968C9.5625 29.3548 11.6875 28.7903 12.75 28.2258C12.75 27.0968 13.8125 25.9677 13.8125 25.9677C9.5625 25.4032 6.375 23.7097 6.375 17.5C6.375 15.2419 6.90625 13.5484 7.96875 12.4194C7.96875 12.4194 6.90625 10.1613 7.96875 7.33871C7.96875 7.33871 10.625 7.33871 12.75 9.59677C14.3438 8.46774 19.6562 8.46774 21.25 9.59677C23.375 7.33871 26.0312 7.33871 26.0312 7.33871C27.0938 11.2903 26.0312 12.4194 26.0312 12.4194C27.0938 13.5484 27.625 15.2419 27.625 17.5C27.625 23.7097 23.9062 25.4032 20.1875 25.9677C20.7188 26.5323 21.25 27.6613 21.25 29.3548V33.871C21.25 34.4355 21.25 35 22.3125 35C23.9062 35 34 29.9194 34 18.0645C34 7.90323 26.5625 0 17 0Z" fill="black"/>
</svg>
