<svg width="28" height="28" viewBox="0 0 30 28" fill="none" xmlns="http://www.w3.org/2000/svg">
<path d="M28.41 6.24394C27.675 7.26594 26.745 8.17594 25.665 8.90394C25.68 9.11394 25.68 9.33794 25.68 9.56194C25.68 16.3519 20.145 24.1779 10.035 24.1779C6.93 24.1779 4.035 23.3239 1.59 21.8679C2.025 21.9099 2.46 21.9379 2.91 21.9379C5.49 21.9379 7.86 21.1119 9.735 19.7399C7.335 19.6979 5.31 18.2139 4.605 16.1699C4.935 16.2259 5.28 16.2679 5.64 16.2679C6.135 16.2679 6.63 16.1979 7.08 16.0859C4.575 15.6099 2.67 13.5379 2.67 11.0459V10.9899C3.42 11.3679 4.26 11.6059 5.16 11.6339C3.69 10.7099 2.715 9.14194 2.715 7.34994C2.715 6.41194 2.985 5.52994 3.465 4.77394C6.18 7.88194 10.23 9.92594 14.805 10.1359C14.715 9.75794 14.655 9.36594 14.655 8.95994C14.655 6.13194 17.13 3.83594 20.16 3.83594C21.75 3.83594 23.175 4.45194 24.18 5.45994C25.425 5.22194 26.61 4.80194 27.675 4.21394C27.255 5.40394 26.385 6.41194 25.245 7.04194C26.37 6.92994 27.42 6.64994 28.41 6.24394Z" fill="#00CEFB"/>
</svg>
